<svg xmlns="http://www.w3.org/2000/svg" width="512" height="512" viewBox="0 0 512 512" style="overflow: visible;" data-svgdocument="" id="_9m8IV_UgjLznXjxX-lnO_" class="fl-svgdocument" x="0" y="0" overflow="hidden" data-bbox="152.37715706205267 102.34350987080481 205.73707681068896 275.957976594143"><path id="_VZh7eA5fqCq3ogesC4Y3F" fill="rgba(255,13,0,1)" transform="matrix(1.075515627861023, 0, 0, 1.075515627861023, 158.3104248046875, 125.10031127929688)" data-type="circle" data-cx="88.385" data-cy="88.385" data-r="88.385" d="M88.385,88.385m-88.385,0a88.385,88.385 0 1, 0 176.77,0a88.385,88.385 0 1, 0 -176.77,0" data-uid="o_f6j8197hc_4"/><g id="_uRARXDfyIFfsSbIOLCFyu" transform="matrix(0.9593372344970703, 0, 0, 0.9593372344970703, 24.070594787597656, -5.736814022064209)" data-uid="o_f6j8197hc_5"><path id="_PiWsOrpSPnSVoG4eIJUoA" d="M87.8 36.9C87.8 36.9 87.8 36.8 87.8 36.9c-3.6-7.2-9.1-13-15.7-16.9c-2.3-5.7-4.6-12.8-4.6-12.9L67 5.5l-1.6 0.6  c-4.9 1.8-7.4 5.3-8.5 8.7c-3.3-0.4-6.6 0.2-9.6 1.6c-3.2 1.6-5.7 4-7.3 7.1c-2.3 1.2-3.9 3.2-4.7 5.6c-0.8 2.5-0.6 5.2 0.6 7.6  c1.2 2.4 3.3 4.2 5.8 5c2.5 3.2 6 5.3 9.9 6.1c-2.6 1.7-4.5 4.3-5.3 7.2c-0.4 1.3-0.7 3.7 1 5.4c-2.1 0.1-4.2 0.6-6.3 1.6  c0.1-0.2 0.1-0.3 0.2-0.5c0.2-0.6 0.7-1.1 1.2-1.7c1.2-1.5 3.3-4.1 0.2-7.5c-0.8-0.9-1.8-1.3-3-1.1C34.2 52.1 27.9 65 27.9 65.1  c-1.4 2.9-2.1 5.3-2.4 7c-1.7-3.1-3.3-7.3-4.2-13C19 45 28.6 34.4 28.7 34.4c1.3-1.3 3.2-4.5 0.7-7.5c-0.8-0.9-1.8-1.4-2.9-1.4  c-2.2 0-4 1.8-4.2 2c-11.4 12.2-14 30.5-6.5 45.4c3.1 6.1 7.7 11.4 13.3 15.2c6.8 4.6 14.7 7 22.7 7c6.2 0 12.3-1.4 18-4.3  C89.6 80.9 97.7 56.7 87.8 36.9z M87.6 45.7C87.5 45.7 87.5 45.7 87.6 45.7c-5.2 1.1-10.7 1.2-11.7 0.2c0.5-1.2 4.8-4 9.6-6.2  C86.4 41.7 87.1 43.7 87.6 45.7z M75.4 83.2c-0.1-0.1-0.2-0.2-0.3-0.3c-0.6-0.5-1.9-1.8-2-2.8c0-0.2 0-0.6 0.4-1  c0.3-0.3 0.7-0.5 1.2-0.5c1.2 0 2.7 0.7 3.9 1.4C77.7 81.2 76.6 82.2 75.4 83.2z M86.4 67.6c-7.4-2.2-13.2-5.4-13.2-6.7  c0.8-1.8 8.6-2 15.2-1.1C88 62.5 87.3 65.1 86.4 67.6z M70.2 59.6c-0.4 0.9-0.4 1.9 0 2.9c1.8 4 11.8 7.3 14.9 8.3  c-1.1 2.4-2.5 4.7-4.2 6.8c-2.2-1.4-6.8-3.7-9.7-0.7c-1 1-1.4 2.3-1.3 3.6c0.2 2.3 2 4.1 2.9 4.8c-1.4 1-2.9 1.9-4.5 2.6  c-12 6-26.3 5-37.4-2.5c-5.2-3.5-9.4-8.4-12.2-14c-6.9-13.7-4.5-30.5 6-41.7c0.4-0.4 1.2-1 1.7-1c0.1 0 0.2 0 0.4 0.3  c1.1 1.3-0.2 2.7-0.5 3c-0.4 0.5-10.9 11.9-8.3 27.6C21 78.9 31.5 82.8 32.8 83.3c9.1 3.8 17.5-0.6 17.8-0.8l-1.6-2.9  c-0.1 0-7.4 3.9-15.1 0.6l-0.2-0.1c-0.2-0.1-2.8-0.9-5.6-4.1c0.2-0.3 0.3-0.7 0.3-1c0 0-0.2-3.1 2.4-8.4c2.9-6.2 7.5-11.9 9-11.9  h0.1c1.2 1.4 1 1.7-0.3 3.2c-0.6 0.7-1.3 1.5-1.7 2.6c-1.1 2.6-2.5 5.1-3.5 6.9c-0.9 1.4-1.5 2.4-1.5 2.4c0 0.1-0.1 0.1-0.1 0.2  c0 0.1-0.1 0.1-0.1 0.2c0 0 0 0.1 0 0.1c0 0.1 0 0.1 0 0.2c0 0.1 0 0.2 0 0.2c0 0.1 0 0.2 0 0.3c0 0.1 0.1 0.3 0.1 0.4  c0.1 0.3 0.3 0.5 0.6 0.7c0.1 0 0.1 0.1 0.2 0.1c0.1 0 0.1 0.1 0.2 0.1c0.1 0 0.1 0 0.2 0.1c0.2 0.1 0.4 0.1 0.7 0  c0.1 0 0.3-0.1 0.4-0.1c0.1 0 0.1-0.1 0.2-0.1c0.1 0 0.1-0.1 0.2-0.1c0.1 0 0.1-0.1 0.2-0.2c0-0.1 0.1-0.1 0.1-0.2  c0.1-0.1 0.7-1 1.5-2.4c1.2-1.6 2.8-2.9 4.7-3.8c4.1-2 8.7-1.9 12.5 0.1c0 0 0 0 0 0c2.5 1.3 4.6 3.4 6 6.1c1.2 2.5 1.7 5.2 1.3 7.9  c-0.1 0.9 0.5 1.7 1.4 1.9c0.1 0 0.1 0 0.2 0c0.8 0 1.5-0.6 1.6-1.4c0.4-3.4-0.1-6.8-1.7-9.9c-1.5-2.9-3.6-5.2-6.2-6.8  c0.4-2.5-0.4-5-0.5-5.4c0-0.1 0-0.1-0.1-0.2c0.2-0.2 0.5-0.5 0.8-0.7c0.6-0.4 1.4-0.8 2.1-0.8c0.8 0 1.5 0.4 2.2 1.3  c0.6 0.7 1.6 0.8 2.3 0.2c0.7-0.6 0.8-1.6 0.2-2.3c-1.7-2-3.5-2.5-4.8-2.5c0 0 0 0 0 0c-3.4 0-5.9 3-6.2 3.4  c-0.1 0.1-0.2 0.2-0.2 0.3c-0.1 0.1-1.3 2.7-3.2 1.9c-1.1-0.5-0.7-1.9-0.6-2.3c0.8-2.7 2.6-4.9 5.2-6.2c4.6-2.3 10.2-0.8 13 3.5  c0.5 0.8 1.5 1 2.3 0.5c0.8-0.5 1-1.5 0.5-2.3c-2.2-3.4-5.7-5.5-9.4-6c0-0.1 0-0.2-0.1-0.2c-0.3-0.9-1.2-1.4-2.1-1.1  c-5.5 1.6-11.4-0.4-14.7-5L43.5 39L43 38.8c-1.8-0.5-3.4-1.7-4.2-3.4c-0.8-1.6-0.9-3.4-0.4-5.1c0.1-0.2 0.2-0.5 0.3-0.7  c0.2-0.1 0.3-0.2 0.4-0.3c0.2-0.2 0.7-0.6 1.2-0.8l1.5 0l1 0h0c0.7 0 1.3-0.4 1.5-1.1c0.3-0.7 0.1-1.4-0.5-1.9L43 24.9  c1.3-2.4 3.3-4.3 5.7-5.5c2.1-1 4.4-1.5 6.7-1.4v0c0.3 0 0.5 0.1 0.8 0.1c-0.1 1.2-0.1 2.2 0.1 3.1c0.1 0.9 1 1.5 1.9 1.4  c0.7-0.1 1.3-0.7 1.4-1.4c0-0.2 0-0.3 0-0.5c0-0.1-0.1-0.9-0.1-2.1c0-0.9 0.2-2.1 0.6-3.2c0.7-2 2-4.1 4.7-5.5  c0.6 1.8 1.6 4.8 2.8 7.9c0.6 1.5 1.2 3.1 1.8 4.6c0.1 0.2 0.2 0.4 0.2 0.6c0.2 0.3 0.3 0.7 0.4 1c0.3 0.6 0.9 1 1.5 1  c0.2 0 0.5 0 0.7-0.1c0.2-0.1 0.4-0.2 0.5-0.3c4.6 3.1 8.4 7.3 11.2 12.3c-3.7 1.7-10.3 5.1-11.3 8.2c-0.3 0.9-0.2 1.8 0.3 2.5  c1.1 1.9 4 2.4 7 2.4c3.3 0 6.7-0.7 8.3-1c0 0 0 0 0 0c0.4 2.6 0.6 5.1 0.4 7.7C84.1 56 72.4 54.9 70.2 59.6z" fill="#000000" transform="matrix(2.5193679332733154, 0, 0, 2.5193679332733154, 110.49665069580078, 98.80492401123047)" data-uid="o_f6j8197hc_6"/><path id="_jAd7BnDydjP7bFOgGwKe2" d="M54.4 29.1c-0.2 0.1-0.4 0.1-0.5 0.1c-0.7 0-1.3-0.4-1.6-1.1c-0.5-1.4-1.4-1.4-2.1-1.2c-0.9 0.2-1.8-0.3-2.1-1.1  c-0.3-0.9 0.2-1.8 1.1-2c1.8-0.6 5-0.2 6.2 3.3C55.7 27.9 55.2 28.8 54.4 29.1z" fill="#000000" transform="matrix(2.5193679332733154, 0, 0, 2.5193679332733154, 109.28898620605469, 97.3181381225586)" data-uid="o_f6j8197hc_7"/><path id="_LwLUInoJS1eWHyC8C7Aaj" d="M55.6 41.8c-0.2 0.3-0.6 0.5-0.9 0.5c-0.2 0-0.4-0.1-0.6-0.2l-7.2-4.8c-0.5-0.3-0.6-1-0.3-1.5c0.3-0.5 1-0.6 1.5-0.3  l7.2 4.8C55.8 40.6 55.9 41.3 55.6 41.8z" fill="#000000" transform="matrix(2.5193679332733154, 0, 0, 2.5193679332733154, 110.75408172607422, 96.65933227539062)" data-uid="o_f6j8197hc_8"/><path id="_a-Ml7fFtUwl68R5MVtF1g" d="M59.1 36.7c-0.2 0.5-0.6 0.8-1.1 0.8c-0.1 0-0.2 0-0.3-0.1l-10.6-3.5c-0.6-0.2-0.9-0.8-0.7-1.4c0.2-0.6 0.8-0.9 1.4-0.7  l10.6 3.5C59 35.5 59.3 36.1 59.1 36.7z" fill="#000000" transform="matrix(2.5193679332733154, 0, 0, 2.5193679332733154, 109.72929382324219, 96.89358520507812)" data-uid="o_f6j8197hc_9"/></g><path text="avocado" text-anchor="middle" font-size="100" letter-spacing="0" side="left" offset="0.5" dx="0" dy="0" space="preserve" href="" font-family="Pacifico" font-scale="contain" x="0" y="0" fill="#000000" data-fl-textpath="" id="__o4eGnY7zmgYMDmCS1MiY" transform="matrix(0.6285887360572815, 0, 0, 0.6285887360572815, 249.9341278076172, 377.9871826171875)" data-uid="o_f6j8197hc_10" d="M-141.60000000000002 0.5Q-147.8 0.5 -151.50000000000003-4Q-155.20000000000002-8.5 -155.20000000000002-15.8L-155.20000000000002-15.8Q-155.20000000000002-23.8 -151.50000000000003-30.95Q-147.8-38.1 -141.65-42.45Q-135.50000000000003-46.8 -128.60000000000002-46.8L-128.60000000000002-46.8Q-126.40000000000002-46.8 -125.65000000000002-45.95Q-124.90000000000002-45.1 -124.40000000000002-42.9L-124.40000000000002-42.9Q-122.30000000000001-43.3 -120.00000000000001-43.3L-120.00000000000001-43.3Q-115.10000000000002-43.3 -115.10000000000002-39.8L-115.10000000000002-39.8Q-115.10000000000002-37.7 -116.60000000000002-29.8L-116.60000000000002-29.8Q-118.90000000000002-18.3 -118.90000000000002-13.8L-118.90000000000002-13.8Q-118.90000000000002-12.3 -118.15000000000002-11.4Q-117.40000000000002-10.5 -116.20000000000002-10.5L-116.20000000000002-10.5Q-114.30000000000001-10.5 -111.60000000000002-12.95Q-108.90000000000002-15.4 -104.30000000000001-20.9L-104.30000000000001-20.9Q-103.10000000000002-22.3 -101.60000000000002-22.3L-101.60000000000002-22.3Q-100.30000000000001-22.3 -99.55000000000001-21.1Q-98.80000000000001-19.9 -98.80000000000001-17.8L-98.80000000000001-17.8Q-98.80000000000001-13.8 -100.70000000000002-11.6L-100.70000000000002-11.6Q-104.80000000000001-6.5 -109.40000000000002-3Q-114.00000000000001 0.5 -118.30000000000001 0.5L-118.30000000000001 0.5Q-121.60000000000002 0.5 -124.35000000000002-1.75Q-127.10000000000002-4 -128.50000000000003-7.9L-128.50000000000003-7.9Q-133.70000000000002 0.5 -141.60000000000002 0.5L-141.60000000000002 0.5ZM-138.00000000000003-9.6Q-135.8-9.6 -133.8-12.2Q-131.8-14.8 -130.9-19.1L-130.9-19.1L-127.20000000000002-37.5Q-131.4-37.4 -134.95000000000002-34.35Q-138.50000000000003-31.3 -140.60000000000002-26.3Q-142.70000000000002-21.3 -142.70000000000002-15.7L-142.70000000000002-15.7Q-142.70000000000002-12.6 -141.45000000000002-11.1Q-140.20000000000002-9.6 -138.00000000000003-9.6L-138.00000000000003-9.6ZM-56.40000000000002-30.4Q-56.100000000000016-30.5 -55.40000000000002-30.5L-55.40000000000002-30.5Q-53.90000000000002-30.5 -53.100000000000016-29.5Q-52.30000000000002-28.5 -52.30000000000002-26.8L-52.30000000000002-26.8Q-52.30000000000002-23.7 -53.500000000000014-21.95Q-54.70000000000002-20.2 -57.100000000000016-19.4L-57.100000000000016-19.4Q-61.70000000000002-17.9 -66.90000000000002-17.9L-66.90000000000002-17.9Q-71.30000000000001-17.9 -75.20000000000002-19.1L-75.20000000000002-19.1Q-78.10000000000002-14.4 -81.60000000000002-9.4L-81.60000000000002-9.4Q-85.60000000000002-3.7 -88.50000000000001-1.6Q-91.40000000000002 0.5 -95.10000000000002 0.5L-95.10000000000002 0.5Q-99.20000000000002 0.5 -101.55000000000001-2.7Q-103.90000000000002-5.9 -104.50000000000001-12.8L-104.50000000000001-12.8Q-105.70000000000002-26.8 -105.70000000000002-37.3L-105.70000000000002-37.3L-105.70000000000002-40.8Q-105.60000000000002-44.1 -103.90000000000002-45.4Q-102.20000000000002-46.7 -98.80000000000001-46.7L-98.80000000000001-46.7Q-96.20000000000002-46.7 -94.95000000000002-45.55Q-93.70000000000002-44.4 -93.70000000000002-41.7L-93.70000000000002-41.7Q-93.70000000000002-30.2 -92.30000000000001-11.8L-92.30000000000001-11.8Q-86.30000000000001-20.7 -83.30000000000001-26L-83.30000000000001-26Q-84.80000000000001-28.9 -84.80000000000001-32.9L-84.80000000000001-32.9Q-84.80000000000001-36.3 -83.30000000000001-39.5Q-81.80000000000001-42.7 -79.20000000000002-44.7Q-76.60000000000002-46.7 -73.30000000000001-46.7L-73.30000000000001-46.7Q-70.40000000000002-46.7 -68.60000000000002-44.65Q-66.80000000000001-42.6 -66.80000000000001-38.7L-66.80000000000001-38.7Q-66.80000000000001-34.2 -69.20000000000002-28.4L-69.20000000000002-28.4Q-65.40000000000002-28.6 -59.100000000000016-29.9L-59.100000000000016-29.9L-56.40000000000002-30.4ZM-10.000000000000014-30.7Q-8.70000000000001-30.7 -8.000000000000014-29.4Q-7.300000000000011-28.1 -7.300000000000011-26.1L-7.300000000000011-26.1Q-7.300000000000011-21.3 -10.20000000000001-20.4L-10.20000000000001-20.4Q-16.20000000000001-18.3 -23.400000000000013-18L-23.400000000000013-18Q-25.30000000000001-9.6 -30.900000000000013-4.55Q-36.500000000000014 0.5 -43.60000000000001 0.5L-43.60000000000001 0.5Q-49.60000000000001 0.5 -53.85000000000001-2.4Q-58.10000000000001-5.3 -60.30000000000001-10.1Q-62.500000000000014-14.9 -62.500000000000014-20.5L-62.500000000000014-20.5Q-62.500000000000014-28.1 -59.60000000000001-34.05Q-56.70000000000001-40 -51.60000000000001-43.35Q-46.500000000000014-46.7 -40.30000000000001-46.7L-40.30000000000001-46.7Q-32.70000000000001-46.7 -28.05000000000001-41.45Q-23.400000000000013-36.2 -22.60000000000001-28.5L-22.60000000000001-28.5Q-17.900000000000013-28.8 -11.400000000000013-30.5L-11.400000000000013-30.5Q-10.600000000000009-30.7 -10.000000000000014-30.7L-10.000000000000014-30.7ZM-42.80000000000001-10.1Q-39.60000000000001-10.1 -37.250000000000014-12.7Q-34.90000000000001-15.3 -34.10000000000001-20.2L-34.10000000000001-20.2Q-37.20000000000001-22.3 -38.85000000000001-25.7Q-40.500000000000014-29.1 -40.500000000000014-32.9L-40.500000000000014-32.9Q-40.500000000000014-34.5 -40.20000000000001-36.1L-40.20000000000001-36.1L-40.70000000000001-36.1Q-44.70000000000001-36.1 -47.35000000000001-32.25Q-50.000000000000014-28.4 -50.000000000000014-21.4L-50.000000000000014-21.4Q-50.000000000000014-15.9 -47.85000000000001-13Q-45.70000000000001-10.1 -42.80000000000001-10.1L-42.80000000000001-10.1ZM 3.1999999999999886 0.5Q-6.60000000000001 0.5 -12.05000000000001-5.05Q-17.50000000000001-10.6 -17.50000000000001-19.7L-17.50000000000001-19.7Q-17.50000000000001-27.8 -14.30000000000001-33.9Q-11.10000000000001-40 -6.000000000000011-43.3Q-0.9000000000000092-46.6  4.699999999999989-46.6L 4.699999999999989-46.6Q 10.199999999999989-46.6  13.249999999999993-43.35Q 16.29999999999999-40.1  16.29999999999999-35L 16.29999999999999-35Q 16.29999999999999-30.8  14.449999999999989-27.9Q 12.599999999999987-25  9.59999999999999-25L 9.59999999999999-25Q 7.699999999999989-25  6.54999999999999-25.9Q 5.3999999999999915-26.8  5.3999999999999915-28.4L 5.3999999999999915-28.4Q 5.3999999999999915-29.1  5.599999999999991-30Q 5.79999999999999-30.9  5.8999999999999915-31.3L 5.8999999999999915-31.3Q 6.3999999999999915-32.8  6.3999999999999915-34.1L 6.3999999999999915-34.1Q 6.3999999999999915-35.4  5.749999999999989-36.1Q 5.099999999999991-36.8  3.8999999999999915-36.8L 3.8999999999999915-36.8Q 1.5999999999999908-36.8 -0.40000000000000924-34.75Q-2.4000000000000092-32.7 -3.6000000000000085-29.2Q-4.80000000000001-25.7 -4.80000000000001-21.5L-4.80000000000001-21.5Q-4.80000000000001-9.9  5.29999999999999-9.9L 5.29999999999999-9.9Q 9.399999999999991-9.9  14.149999999999991-12.65Q 18.89999999999999-15.4  23.499999999999993-20.9L 23.499999999999993-20.9Q 24.69999999999999-22.3  26.19999999999999-22.3L 26.19999999999999-22.3Q 27.499999999999993-22.3  28.249999999999993-21.1Q 28.999999999999993-19.9  28.999999999999993-17.8L 28.999999999999993-17.8Q 28.999999999999993-14  27.099999999999987-11.6L 27.099999999999987-11.6Q 22.39999999999999-5.8  15.849999999999987-2.65Q 9.29999999999999 0.5  3.1999999999999886 0.5L 3.1999999999999886 0.5ZM 32.199999999999996 0.5Q 25.999999999999993 0.5  22.299999999999994-4Q 18.599999999999994-8.5  18.599999999999994-15.8L 18.599999999999994-15.8Q 18.599999999999994-23.8  22.299999999999994-30.95Q 25.999999999999993-38.1  32.14999999999999-42.45Q 38.3-46.8  45.199999999999996-46.8L 45.199999999999996-46.8Q 47.39999999999999-46.8  48.14999999999999-45.95Q 48.89999999999999-45.1  49.39999999999999-42.9L 49.39999999999999-42.9Q 51.49999999999999-43.3  53.8-43.3L 53.8-43.3Q 58.699999999999996-43.3  58.699999999999996-39.8L 58.699999999999996-39.8Q 58.699999999999996-37.7  57.199999999999996-29.8L 57.199999999999996-29.8Q 54.89999999999999-18.3  54.89999999999999-13.8L 54.89999999999999-13.8Q 54.89999999999999-12.3  55.64999999999999-11.4Q 56.39999999999999-10.5  57.599999999999994-10.5L 57.599999999999994-10.5Q 59.49999999999999-10.5  62.199999999999996-12.95Q 64.89999999999999-15.4  69.5-20.9L 69.5-20.9Q 70.69999999999999-22.3  72.19999999999999-22.3L 72.19999999999999-22.3Q 73.5-22.3  74.25-21.1Q 75-19.9  75-17.8L 75-17.8Q 75-13.8  73.1-11.6L 73.1-11.6Q 69-6.5  64.39999999999999-3Q 59.8 0.5  55.49999999999999 0.5L 55.49999999999999 0.5Q 52.199999999999996 0.5  49.449999999999996-1.75Q 46.699999999999996-4  45.3-7.9L 45.3-7.9Q 40.099999999999994 0.5  32.199999999999996 0.5L 32.199999999999996 0.5ZM 35.8-9.6Q 37.99999999999999-9.6  39.99999999999999-12.2Q 41.99999999999999-14.8  42.89999999999999-19.1L 42.89999999999999-19.1L 46.599999999999994-37.5Q 42.39999999999999-37.4  38.849999999999994-34.35Q 35.3-31.3  33.199999999999996-26.3Q 31.099999999999994-21.3  31.099999999999994-15.7L 31.099999999999994-15.7Q 31.099999999999994-12.6  32.349999999999994-11.1Q 33.599999999999994-9.6  35.8-9.6L 35.8-9.6ZM 123.69999999999999-22.3Q 125-22.3  125.75-21.1Q 126.5-19.9  126.5-17.8L 126.5-17.8Q 126.5-13.8  124.6-11.6L 124.6-11.6Q 120.5-6.6  115.6-3.05Q 110.69999999999999 0.5  105.89999999999999 0.5L 105.89999999999999 0.5Q 98.3 0.5  94.3-8.4L 94.3-8.4Q 90.1-3.1  86.94999999999999-1.3Q 83.8 0.5  79.6 0.5L 79.6 0.5Q 73.5 0.5  69.55-4.05Q 65.6-8.6  65.6-15.9L 65.6-15.9Q 65.6-23.9  69-30.75Q 72.39999999999999-37.6  78.35-41.95Q 84.3-46.3  91.69999999999999-47.1L 91.69999999999999-47.1Q 93.6-66.5  98.94999999999999-80.25Q 104.3-94  113-94L 113-94Q 117.3-94  120.14999999999999-90.1Q 123-86.2  123-78.3L 123-78.3Q 123-67.1  117.5-52.1Q 112-37.1  102.8-21.3L 102.8-21.3Q 103.19999999999999-15.5  104.55-13Q 105.89999999999999-10.5  108-10.5L 108-10.5Q 110.69999999999999-10.5  113.5-12.9Q 116.3-15.3  121-20.9L 121-20.9Q 122.19999999999999-22.3  123.69999999999999-22.3L 123.69999999999999-22.3ZM 111.89999999999999-84.2Q 110-84.2  108.1-77.45Q 106.19999999999999-70.7  104.85-59.8Q 103.5-48.9  102.89999999999999-37L 102.89999999999999-37Q 114.1-61.4  114.1-76.2L 114.1-76.2Q 114.1-80  113.44999999999999-82.1Q 112.8-84.2  111.89999999999999-84.2L 111.89999999999999-84.2ZM 83.1-9.6Q 85-9.6  86.89999999999999-11.15Q 88.8-12.7  91.69999999999999-16.9L 91.69999999999999-16.9Q 90.69999999999999-22.3  90.69999999999999-29L 90.69999999999999-29Q 90.69999999999999-31.4  90.89999999999999-36.8L 90.89999999999999-36.8Q 85.39999999999999-35.1  81.75-29.45Q 78.1-23.8  78.1-16.9L 78.1-16.9Q 78.1-9.6  83.1-9.6L 83.1-9.6ZM 169.4-30.7Q 170.70000000000002-30.7  171.4-29.4Q 172.10000000000002-28.1  172.10000000000002-26.1L 172.10000000000002-26.1Q 172.10000000000002-21.3  169.20000000000002-20.4L 169.20000000000002-20.4Q 163.20000000000002-18.3  156-18L 156-18Q 154.10000000000002-9.6  148.5-4.55Q 142.9 0.5  135.8 0.5L 135.8 0.5Q 129.8 0.5  125.55000000000001-2.4Q 121.30000000000001-5.3  119.10000000000001-10.1Q 116.9-14.9  116.9-20.5L 116.9-20.5Q 116.9-28.1  119.80000000000001-34.05Q 122.7-40  127.80000000000001-43.35Q 132.9-46.7  139.10000000000002-46.7L 139.10000000000002-46.7Q 146.70000000000002-46.7  151.35000000000002-41.45Q 156-36.2  156.8-28.5L 156.8-28.5Q 161.5-28.8  168-30.5L 168-30.5Q 168.8-30.7  169.4-30.7L 169.4-30.7ZM 136.60000000000002-10.1Q 139.8-10.1  142.15-12.7Q 144.5-15.3  145.3-20.2L 145.3-20.2Q 142.20000000000002-22.3  140.55-25.7Q 138.9-29.1  138.9-32.9L 138.9-32.9Q 138.9-34.5  139.20000000000002-36.1L 139.20000000000002-36.1L 138.70000000000002-36.1Q 134.70000000000002-36.1  132.05-32.25Q 129.4-28.4  129.4-21.4L 129.4-21.4Q 129.4-15.9  131.55-13Q 133.70000000000002-10.1  136.60000000000002-10.1L 136.60000000000002-10.1Z"/></svg>