<svg xmlns="http://www.w3.org/2000/svg" width="512" height="512" viewBox="0 0 512 512" style="overflow: visible;" data-svgdocument="" id="_URdBei0kSXneGCrMLawtX" class="fl-svgdocument" x="0" y="0" overflow="hidden"><path d="M35.652 96.432c-0.101 0-0.203-0.03-0.292-0.094c-0.216-0.155-0.272-0.453-0.129-0.677    c0.8-1.245 14.237-13.934 34.646-33.148c8.922-8.401 18.048-16.994 23.329-22.06c-6.078 4.775-16.58 13.428-26.842 21.882    c-23.824 19.63-39.602 32.537-41.77 33.079c-0.167 0.041-0.346-0.007-0.47-0.127c-0.124-0.121-0.177-0.298-0.139-0.467    c1.447-6.512 31.989-31.595 52.199-48.193c3.974-3.264 7.684-6.311 10.51-8.681c-7.521 5.625-20.811 16.27-32.95 25.994    c-27.779 22.25-37.25 29.624-38.527 29.443c-0.14-0.02-0.265-0.097-0.344-0.213s-0.106-0.261-0.074-0.397    c0.173-0.731 8.564-8.259 37.334-33.766C68.74 44.283 87.092 28.013 94.858 20.753c-0.708 0.528-1.421 1.066-2.069 1.556    c-1.213 0.916-2.398 1.81-3.366 2.513c-5.838 4.244-21.36 17.316-37.794 31.156C31.28 73.114 12.06 89.302 8.995 90.652    c-0.213 0.093-0.466 0.026-0.605-0.163c-0.139-0.189-0.126-0.45 0.029-0.626c9.19-10.397 38.095-35.025 59.201-53.007    c9.992-8.514 19-16.189 23.479-20.274c-8.873 6.281-32.542 24.476-50.688 38.425C8.842 79.275 8.748 79.229 8.258 79.064    c-0.151-0.053-0.268-0.175-0.314-0.329c-0.046-0.153-0.016-0.319 0.082-0.447c4.334-5.68 9.63-10.615 14.752-15.388l0.2-0.187    c6.471-6.028 22.135-19.542 35.725-30.644c-3.744 2.711-7.688 5.575-11.601 8.417C23.569 57.575 8.019 68.808 6.345 69.226    c-0.209 0.051-0.432-0.037-0.546-0.223c-0.114-0.185-0.096-0.422 0.045-0.588c2.515-2.94 5.657-5.588 8.695-8.149    c1.43-1.205 2.909-2.45 4.276-3.691c6.275-5.697 25.173-21.131 40.367-32.849C37.745 38.542 5.72 61.338 5.412 61.609    c-0.179 0.158-0.449 0.169-0.638 0.023c-0.19-0.146-0.253-0.402-0.146-0.616c0.796-1.603 21.187-17.596 45.743-36.759    c5.637-4.399 10.826-8.448 14.316-11.202C55.55 18.741 35.058 32.902 5.235 54.161c-1.097 0.781-1.767 1.259-1.916 1.362    c-0.173 0.12-0.405 0.12-0.577-0.004c-0.172-0.123-0.248-0.342-0.188-0.546c0.12-0.415 2.455-2.482 23.607-20.491    c10.83-9.22 23.81-20.271 28.7-24.668c-0.257 0.146-0.511 0.289-0.764 0.423C50.549 12.125 9.794 39.863 2.285 45.274    c-0.21 0.151-0.499 0.117-0.669-0.077c-0.169-0.194-0.163-0.486 0.015-0.673c1.374-1.444 11.045-9.508 21.286-18.047    c8.443-7.04 17.104-14.261 21.428-18.033c-0.238 0.151-0.476 0.304-0.712 0.456c-0.399 0.257-0.79 0.508-1.166 0.738    c-2.399 1.466-11.623 8.207-20.542 14.727C13.56 30.479 5.658 36.255 3.877 37.318c-0.211 0.127-0.481 0.08-0.64-0.108    c-0.158-0.188-0.155-0.463 0.005-0.648c0.975-1.127 7.826-6.967 15.758-13.73c7.801-6.651 16.461-14.034 19.912-17.279    c-0.927 0.499-1.909 1.192-2.718 1.764C35.762 7.624 35.37 7.9 35.048 8.105C34.774 8.279 7.237 25.985 2.658 30.894    c-0.185 0.197-0.491 0.213-0.694 0.036c-0.203-0.178-0.229-0.484-0.059-0.693c2.822-3.46 15.125-15.025 22.475-21.936    c0.474-0.445 0.929-0.874 1.363-1.282C19.42 11.052 10.127 17.501 5.145 20.959c-1.682 1.167-2.929 2.032-3.494 2.412    c-0.202 0.136-0.473 0.107-0.642-0.071c-0.168-0.178-0.183-0.45-0.036-0.645C2.741 20.314 11.068 11.166 15.65 6.164L3.318 14.688    c-0.227 0.157-0.539 0.1-0.695-0.127c-0.157-0.227-0.1-0.539 0.127-0.695L18.754 2.803c0.209-0.146 0.494-0.109 0.662 0.083    c0.167 0.192 0.163 0.479-0.01 0.667C19.281 3.688 9.092 14.744 4.122 20.451c0.147-0.102 0.298-0.207 0.453-0.314    C10.812 15.809 23.79 6.803 29.311 3.668c0.22-0.124 0.498-0.066 0.648 0.137c0.15 0.203 0.126 0.485-0.056 0.66    c-1.082 1.033-2.789 2.638-4.839 4.565C20.245 13.561 13.29 20.099 8.3 25.016c9.695-7.135 26-17.62 26.211-17.754    C34.822 7.064 35.2 6.796 35.619 6.5c1.583-1.119 3.553-2.511 5.098-2.602c0.196-0.011 0.379 0.092 0.471 0.264    s0.075 0.383-0.044 0.538C39.902 6.328 29.607 15.105 19.65 23.593c-3.397 2.896-6.71 5.721-9.414 8.051    c3.17-2.291 7.081-5.149 11.099-8.087c8.936-6.531 18.176-13.285 20.61-14.772c0.37-0.226 0.753-0.473 1.146-0.726    c1.293-0.833 2.759-1.776 4.163-2.22c0.215-0.069 0.449 0.016 0.571 0.205c0.122 0.189 0.103 0.437-0.047 0.604    c-1.401 1.569-13.002 11.242-24.221 20.596c-5.18 4.319-10.214 8.517-14.093 11.789c14.391-9.941 41.176-28.09 44.166-29.679    c0.247-0.132 0.497-0.273 0.75-0.417c0.873-0.494 1.775-1.005 2.769-1.235c0.193-0.043 0.393 0.029 0.512 0.187    s0.134 0.371 0.038 0.543C57.193 9.34 45.141 19.638 26.81 35.245c-5.939 5.056-11.985 10.204-16.44 14.034    C36.118 30.977 65.086 10.755 69.306 9.361c0.218-0.073 0.462 0.015 0.584 0.214c0.121 0.198 0.09 0.453-0.075 0.617    c-0.772 0.763-8.347 6.673-18.829 14.854C38.952 34.438 22.739 47.09 13.271 54.772c18.51-13.15 60.947-43.088 64.272-44.383    c0.241-0.094 0.515 0.012 0.63 0.244c0.114 0.231 0.034 0.513-0.187 0.648c-10.67 6.544-49.017 37.425-58.5 46.033    c-1.381 1.253-2.866 2.506-4.303 3.716c-2.092 1.764-4.233 3.567-6.171 5.472c6.727-4.477 23.5-16.657 37.501-26.824    c22.85-16.592 32.973-23.882 34.018-24.057c0.237-0.04 0.474 0.099 0.555 0.329c0.08 0.23-0.018 0.484-0.231 0.602    c-8.642 4.768-46.201 36.651-57.195 46.894l-0.2 0.186c-4.27 3.979-8.662 8.071-12.494 12.6    c5.121-3.785 16.719-12.701 28.837-22.018c30.948-23.79 52.982-40.647 54.633-40.861c0.184-0.024 0.367 0.056 0.474 0.208    c0.107 0.152 0.12 0.351 0.035 0.517c-0.713 1.38-10.116 9.43-26.676 23.539c-19.068 16.246-44.507 37.92-55.961 49.568    c7.278-5.53 23.188-18.929 38.677-31.973c16.448-13.852 31.983-26.935 37.85-31.2c0.964-0.701 2.145-1.591 3.352-2.503    c3.675-2.772 5.958-4.469 6.689-4.655c0.209-0.053 0.418 0.029 0.536 0.201c0.118 0.173 0.117 0.401-0.004 0.572    c-1.524 2.152-24.445 22.474-46.611 42.126C38.85 72.12 24.533 84.813 18.576 90.328c6.459-4.677 21.202-16.484 34.541-27.169    C71.931 48.09 89.701 33.857 92.229 33.024c0.2-0.065 0.417 0 0.547 0.163c0.131 0.163 0.146 0.39 0.038 0.569    c-0.572 0.953-5.879 5.333-15.996 13.643C58.971 62.058 29.76 86.048 25.453 93.849c5.076-3.282 24.431-19.229 40.276-32.285    c18.976-15.635 30.615-25.172 32.239-25.774c0.204-0.074 0.438-0.01 0.571 0.165c0.133 0.174 0.137 0.416 0.01 0.594    c-0.695 0.973-11.037 10.733-27.986 26.692c-8.288 7.804-17.155 16.152-23.827 22.505c16.381-13.621 44.684-36.437 47.007-37.061    c0.19-0.053 0.395 0.015 0.52 0.169c0.124 0.154 0.146 0.367 0.055 0.543c-0.398 0.77-7.549 7.334-22.635 21.089    c-7.294 6.651-15.214 13.873-20.274 18.61c3.23-2.49 7.411-5.755 11.521-8.965c10.304-8.045 21.98-17.163 26.279-20.123    c0.2-0.136 0.47-0.11 0.642 0.063c0.17 0.175 0.189 0.446 0.046 0.644c-1.839 2.521-12.302 11.857-21.867 20.283    c5.987-4.887 12.281-9.493 19.361-12.561c0.178-0.075 0.384-0.044 0.529 0.084s0.204 0.328 0.15 0.514    c-0.521 1.798-5.091 5.723-12.504 11.977c-4.687 3.953-9.85 8.309-13.051 11.629c1.707-1.286 3.947-3.033 6.148-4.749    c7.766-6.053 17.43-13.586 21.048-14.993c0.141-0.054 0.299-0.043 0.431 0.032c0.131 0.075 0.221 0.206 0.245 0.355    c0.198 1.247-2.846 3.95-10.367 10.283c-3.106 2.616-6.279 5.288-8.616 7.489c0.836-0.609 1.755-1.287 2.69-1.977    c7.485-5.517 13.865-10.113 16.133-10.472c0.155-0.022 0.31 0.024 0.423 0.132s0.169 0.262 0.152 0.416    c-0.093 0.852-2.318 3.04-8.958 9.182c-1.811 1.675-3.66 3.386-4.946 4.644c3.706-1.948 11.737-6.541 17.083-9.66    c0.22-0.128 0.501-0.071 0.654 0.135c0.151 0.205 0.124 0.491-0.063 0.664l-8.83 8.147l5.893-2.896    c0.249-0.118 0.548-0.02 0.67 0.229c0.121 0.248 0.02 0.548-0.229 0.67l-8.982 4.413c-0.225 0.107-0.492 0.039-0.633-0.167    c-0.141-0.204-0.109-0.481 0.073-0.649l8.016-7.396c-7.363 4.257-14.807 8.427-15.704 8.428c-0.012 0-0.021-0.001-0.031-0.002    c-0.172-0.024-0.318-0.137-0.388-0.296c-0.068-0.159-0.051-0.344 0.049-0.485c0.639-0.914 3.443-3.508 6.689-6.512    c2.709-2.505 6.183-5.718 7.782-7.46c-3.244 1.623-9.729 6.402-14.259 9.742c-3.723 2.743-5.861 4.308-6.529 4.556    c-0.203 0.078-0.438 0.01-0.572-0.167c-0.134-0.176-0.136-0.418-0.006-0.597c1.782-2.444 6.873-6.73 11.796-10.875    c3.485-2.935 7.642-6.435 9.293-8.288c-4.287 2.391-12.903 9.106-19.391 14.164c-6.29 4.903-8.73 6.77-9.414 6.923    c-0.206 0.045-0.409-0.039-0.523-0.208c-0.115-0.171-0.114-0.395 0.002-0.563c2.362-3.436 9.081-9.104 15.578-14.585    c4.648-3.922 9.424-7.95 11.342-10.202c-8.604 4.061-16.095 10.396-23.352 16.535c-3.839 3.246-7.808 6.603-11.873 9.562    c-0.197 0.144-0.469 0.124-0.644-0.046c-0.174-0.171-0.201-0.441-0.062-0.643c0.395-0.573 4.266-3.983 11.646-10.467    c7.775-6.83 17.671-15.521 23.183-20.784c-5.567 4.186-13.971 10.747-21.616 16.718c-10.329 8.064-16.701 13.026-17.515 13.401    c-0.208 0.098-0.457 0.038-0.601-0.143c-0.143-0.181-0.145-0.436-0.003-0.618c1.287-1.659 13.638-12.922 25.583-23.813    c6.845-6.241 14.3-13.039 18.664-17.13c-13.124 9.782-51.121 40.5-53.629 43.626C35.944 96.367 35.799 96.432 35.652 96.432z" stroke="none" fill="#d7d8d9" transform="matrix(2.6135504615024923, 2.52403092482223, -2.52403092482223, 2.6135504615024923, 249.9601917735954, -0.23193468526504812)" stroke-width="1" data-uid="o_f6j82l99k_4"/><g transform="matrix(2.279783189720155, 0, 0, 2.279783189720155, -319.7398879423007, -142.23589825425535)" data-uid="o_f6j82l99k_5"><path fill-rule="evenodd" clip-rule="evenodd" d="M15.738 11.293c-0.059 0.013-0.135 0.012-0.125 0.096     C15.696 11.396 15.771 11.399 15.738 11.293z" stroke="none" fill="#d42304" transform="matrix(2.2599031925201416, 0, 0, 2.2599031925201416, 139.43438720703125, 60.685672760009766)" stroke-width="1" data-uid="o_f6j82l99k_6"/><path fill-rule="evenodd" clip-rule="evenodd" d="M90.437 32.262c-0.153-0.088-0.121-0.436-0.128-0.575     c-0.38-0.07-0.369 0.521-0.668 0.639c-0.21-0.293-0.75-0.252-0.925-0.575c-1.193 0.447-2.622 0.62-3.89 1.052     c-0.132 0.006-0.098-0.156-0.253-0.127c-1.24 0.408-2.601 0.73-3.921 1.052c-1.078 0.263-2.239 0.458-3.409 0.765     c-0.34 0.088-0.896 0.357-1.211 0.317c-0.209-0.024-0.569-0.415-0.829-0.605c-0.67-0.492-0.983-0.791-1.592-1.273     c-0.281-0.222-0.61-0.425-0.798-0.637c-0.394-0.447-0.623-1.028-1.021-1.467c-0.163 0.049-0.365 0.052-0.51 0.191     c-0.211-0.513-0.388-1.53-1.05-1.114c-0.128 0.05-0.127 0.234-0.19 0.349c0.159 0.231 0.25 0.536 0.381 0.797     c-0.024 0.146-0.127 0.214-0.159 0.349c0.185 1.039 0.036 1.997 0.255 3.125c-1.176-0.554-2.575-1.043-3.633-1.721     c-0.223-0.141-0.338-0.389-0.732-0.286c-0.127 0.105-0.217 0.25-0.351 0.35c-0.412-0.306-1.098-0.069-1.21 0.381     c0.063 0.158 0.158 0.288 0.285 0.383c-0.149 0.175-0.428 0.419-0.191 0.703c0.243 0.043 0.496 0.075 0.732 0.126     c-0.063 0.237-0.317 0.291-0.287 0.605c0.021 0.193 0.561 0.776 0.702 0.956c0.795 1.028 1.335 2.146 2.071 3.25     c0.239 0.361 0.498 0.722 0.733 1.084c0.461 0.714 1.097 1.315 1.307 2.198c0.026 0.026 0.071 0.036 0.127 0.034     c0.119 0.414 0.322 0.736 0.478 1.116c-0.382 0.15-0.838 0.164-1.273 0.19c-0.42 0.024-0.819-0.005-1.243 0.032     c-1.318 0.121-2.584 0-3.826 0.128c-0.514-0.164-0.945 0.017-1.496 0.032c-0.303 0.007-0.613-0.045-0.924-0.032     c-2.374 0.1-5.096 0.226-7.616 0.352c-0.252 0.013-0.53-0.055-0.797-0.034c-0.589 0.047-1.147 0.203-1.689 0.162     c-0.262-0.022-0.482-0.146-0.637 0.03c-0.193 0.051-0.38-0.028-0.574-0.03c-0.352-0.007-0.647 0.119-0.86 0.126     c-0.088 0.004-0.201-0.06-0.287-0.064c-0.175-0.007-0.364 0.066-0.542 0.064c-1.761-0.011-3.667-0.182-5.514 0.128     c-0.154 0.143-0.393 0.199-0.54 0.351c-0.992-0.092-2.245 0.055-3.282 0.126c-0.186 0.013-0.318 0.036-0.446 0.128     c-0.086 0.009 0.083-0.123-0.066-0.096c0.024 0.115-0.054 0.115-0.032 0c-0.261 0.167-1.08 0.348-1.273 0.192     c-0.302 0.075-1.112 0.186-1.754 0.255c-0.318-0.594-0.504-1.321-0.892-1.849c-0.018-0.077-0.047-0.145-0.031-0.253     c-0.248-0.447-0.6-0.949-0.669-1.467c-0.082-0.004-0.153-0.017-0.191-0.064c-0.048-0.12 0.141-0.006 0.096-0.128     c-0.497-0.556-0.432-1.289-0.989-1.912c-0.003-0.077 0.041-0.055 0.032 0c0.032-0.214-0.194-0.34-0.19-0.573     c-0.191-0.34-0.427-0.637-0.607-0.986c-0.057 0.004-0.019 0.107-0.063 0.126c-0.087-0.208-0.026-0.414-0.19-0.573     c-0.087-0.022 0.023 0.15-0.066 0.126c0.048-0.011-0.106-0.165-0.094-0.126c-0.031-0.096 0.075-0.12 0.064-0.223     c-0.028-0.252-0.382-0.46-0.318-0.797c-0.183 0.115-0.146-0.242-0.287-0.319c0.009-0.111 0.085 0.115 0.096 0     c-0.012-0.1-0.075-0.21-0.129-0.094c-0.027-0.28-0.194-0.556-0.319-0.637c-0.086-0.285-0.136-0.604-0.349-0.766     c0.024-0.423-0.276-0.485-0.287-0.797c-0.202 0.021-0.139-0.222-0.286-0.255c0.006-0.102-0.058-0.135-0.034-0.255     c-0.21-0.244-0.319-0.594-0.413-0.955c-0.063-0.013-0.003-0.146-0.129-0.096c0.041-0.325-0.068-0.396-0.223-0.509     c-0.531-1.424-1.254-2.826-1.753-4.175c-0.016-0.101-0.103-0.13-0.19-0.159c0.062-0.178-0.089-0.266-0.161-0.383     c-0.105-0.175-0.06-0.483-0.254-0.605c0.063-0.389-0.276-0.518-0.287-0.924c-0.198 0.057-0.125-0.405-0.35-0.319     c0.064-0.158 0.039-0.265-0.063-0.446c-0.02-0.033-0.111-0.082-0.128-0.126c-0.064-0.155 0.022-0.448-0.191-0.351     c-0.024-0.119 0.077-0.177 0-0.255c-0.261-0.461-0.514-0.932-0.701-1.465c-0.104-0.029-0.043 0.104-0.128 0.095     c-0.088-0.085 0.024-0.082 0.063-0.128c-0.391-0.82-0.948-1.531-1.115-2.486c0.069-0.067 0.111-0.165 0.126-0.286     c-1.285-1.432-2.526-2.912-3.919-4.238c-0.252-0.501-0.592-0.916-0.86-1.402c-0.101 0.029-0.101-0.145-0.222-0.063     c-0.301-0.549-0.688-1.011-0.957-1.594c-0.037 0.006-0.026 0.058-0.03 0.095c0.001-0.132-0.112-0.118-0.192-0.222     c-0.067-0.085-0.074-0.365-0.191-0.16c-0.085 0.139 0.127 0.036 0.096 0c0.101 0.116 0.064 0.606 0.254 0.575     c-0.061 0.266 0.072 0.432 0.128 0.668c-0.175 0.035-0.141-0.175-0.254-0.032c-0.505-0.38-0.887-0.866-1.339-1.339     c-0.384-0.402-0.969-0.623-1.18-1.212c-0.732-0.329-1.125-1-1.753-1.433c-0.039-0.37-0.273-0.625-0.637-0.573     c-0.456-0.187-1.391-1.604-1.849-1.563c-0.231 0.021-0.578 0.163-0.638 0.351c-0.125 0.402 0.603 0.551 0.735 0.892     c0.021 0.162-0.12 0.16-0.128 0.288c-0.127 1.469-0.082 2.723-0.224 4.046c-0.051 0.475-0.184 0.952-0.223 1.436     c-0.103 1.262-0.285 2.525-0.414 3.824c-0.043 0.417-0.116 0.777-0.127 1.21c-0.007 0.228-0.041 0.463-0.064 0.702     c-0.07 0.653-0.147 1.413-0.319 2.104c-0.198 0.793-0.5 1.603-0.383 2.292c0.151 0.175 0.417 0.312 0.702 0.255     c0.092-0.086 0.06-0.3 0.096-0.445c0.237 1.518 0.887 2.832 1.337 4.239c0.756 1.422 1.325 2.88 2.072 4.237     c0.546 0.994 1.157 1.974 1.816 2.9c1.182 1.661 2.356 3.472 3.665 5.067c0.551 1.073 1.452 1.798 1.976 2.9     c0.308 0.21 0.455 0.586 0.7 0.86c-0.051 0.192-0.261 0.212-0.253 0.416c0.012 0.317 0.591 0.329 0.859 0.507     c0.4 0.269 0.5 0.746 0.669 1.02c0.525 0.528 0.91 1.195 1.371 1.785c0.266 0.148 0.804 0.43 1.083 0.096     c-0.023-0.276-0.29-0.404-0.446-0.573c-0.296-0.323-0.47-0.724-0.733-1.084c0.631 0.304 1.167 0.706 1.723 1.084     c0.158-0.002 0.317 0 0.317-0.16c1.602 0.725 3.31 1.343 4.686 2.293c0.284 2.454 0.433 4.904 0.635 7.298     c0.081 0.916 0.127 1.852 0.098 2.738c-0.042 1.184 0.022 2.239-0.352 3.221c0.085 0.372-0.203 0.62-0.16 1.052     c0.111 0.09 0.246 0.158 0.446 0.158c-0.035 0.368 0.054 0.668 0.096 0.987c0.401 0.166 0.989 0.15 0.86-0.413     c0.217-0.124 0.469-0.056 0.734-0.098c0.043 0.947 0.038 2.029 0 3.093c-0.16 4.313-0.322 8.991-0.224 13.417     c0.037 1.612 0.014 3.164 0 4.651c-0.005 0.545 0.133 1.094 0.064 1.594c-0.025 0.184-0.171 0.36-0.192 0.541     c-0.059 0.578 0.222 1.296 0.32 1.818c-0.041 0.108-0.075 0.222-0.128 0.319c0.074 0.199 0.113 0.278 0.096 0.447     c0.102-0.169 0.275 0.135 0.574 0.06c-0.132 0.53 0.312 1.079 0.797 0.797c0.059-0.48 0.039-0.856 0.095-1.338     c0.134-0.019 0.216 0.02 0.289 0.064c-0.009 0.143-0.052 0.248-0.034 0.417c0.232 0.308 0.602 0.594 1.084 0.474     c0.337-1.049 0.243-2.326 0.287-3.792c0.072-2.325-0.14-4.564-0.16-6.85c-0.017-2.115-0.091-4.403-0.096-6.402     c0.266-3.543-0.139-6.38 0.288-9.502c1.735-0.248 3.747-0.334 5.767-0.474c0.12 2.052-0.232 4.303-0.159 6.595     c0.03 0.89-0.091 1.829-0.127 2.738c-0.103 2.664-0.073 5.385-0.192 7.744c-0.049 1.003 0.017 2.138-0.095 3.062     c0.098 0.515 0.019 1.442 0.065 2.134c0.018 0.293 0.135 0.557-0.097 0.797c-0.066 0.763-0.224 1.525 0 2.104     c0.164 0.057 0.292 0.154 0.51 0.158c0.07 0.455 0.195 1.011 0.797 0.83c0.144-0.218 0.083-0.612 0.255-0.672     c0.338-0.117 0.099 0.507 0.222 0.864c0.122 0.342 0.595 0.488 0.796 0.222c-0.001-0.522 0.053-0.707 0.033-1.274     c0.082-0.153 0.319-0.15 0.414-0.289c-0.208-0.755-0.167-1.92-0.127-2.994c0.033-0.88 0.114-1.777 0.16-2.615     c0.231-4.22 0.488-8.68 0.479-12.745c-0.003-0.954 0.115-1.89 0.157-2.867c0.061-1.314 0.145-2.634 0.288-3.952     c4.031-0.271 7.939-0.474 12.048-0.605c0.897-0.026 1.788-0.063 2.706-0.063c0.179 0.436 0.113 1.225 0.223 1.721     c0.029 0.128 0.21 0.267 0.385 0.285c0.202 1.004 0.078 1.962 0.191 3.089c0.076 0.771 0.05 1.616 0.128 2.235     c0.118 0.955 0.095 1.939 0.126 2.897c0.058 1.755 0.077 3.528 0.127 5.196c0.048 1.68 0.028 3.483 0 5.129     c-0.006 0.391-0.125 0.812 0.033 1.149c-0.211 0.409 0.024 0.943-0.033 1.338c0.068 0.015 0.061-0.045 0.064-0.094     c0.065 0.281 0.014 0.815 0.127 1.018c0.166-0.112 0.107-0.368 0.16-0.545c0.021-0.067 0.088-0.153 0.095-0.218     c0.018-0.165-0.123-0.338 0.064-0.417c0.294 0.41-0.174 2.465 0.159 2.837c0.152 0.169 0.412 0.105 0.669 0.063     c0.019-0.21-0.035-0.405 0.062-0.48c0.291-0.015 0.139 0.263 0.289 0.417c0.253-0.015 0.451 0.177 0.669 0.094     c0.043 0.38-0.057 1 0.254 1.244c0.313 0.011 0.501 0.12 0.702-0.064c-0.054-1.213-0.079-2.75-0.16-3.919     c0.011-0.139 0.188-0.112 0.191-0.255c-0.145-1.563-0.282-3.355-0.318-5.035c-0.005-0.214 0.05-0.417 0.03-0.639     c-0.183-2.164-0.207-4.647-0.316-6.85c-0.042-0.815-0.093-1.894-0.159-2.615c0.13-0.011-0.07-0.222 0.062-0.124     c-0.18-1.916-0.467-5.268-0.479-7.552c0.143-0.034 0.426-0.154 0.446 0.029c0.084 0.008 0.025-0.123 0.129-0.094     c1.769-0.094 3.992 0.004 5.607 0c0.08 0.384-0.037 0.643 0 1.082c0.114 0.15 0.203 0.331 0.381 0.417     c0.242 1.789 0.27 3.604 0.416 5.448c0.169 2.097 0.441 4.547 0.669 6.85c0.061 0.612 0.03 1.236 0.096 1.849     c0.06 0.557 0.129 1.053 0.158 1.594c0.048 0.83-0.03 1.924 0 2.9c0.029 0.815 0.088 1.672 0.097 2.483     c0.116 0.15 0.281 0.252 0.479 0.319c0.168 1.251 0.244 2.739 0.351 4.175c0.106 0.108 0.172 0.252 0.318 0.315     c0.171-0.019 0.23-0.049 0.353-0.061c0.189-0.484 0.015-0.995 0.061-1.593c0.258 0.053 0.558 0.165 0.733-0.034     c-0.204-1.698-0.272-3.509-0.223-5.068c0.22 1.856 0.127 3.536 0.319 5.166c0.301 0.087 0.508 0.215 0.795 0.095     c-0.068-1.06-0.165-1.962-0.19-2.804c-0.003-0.102 0.041-0.225 0.031-0.319c-0.006-0.067-0.093-0.127-0.094-0.191     c-0.002-0.086 0.06-0.173 0.062-0.252c0.02-0.417-0.128-0.879-0.128-1.341c0-0.346 0.017-0.635 0-0.954     c-0.005-0.124-0.008-0.467-0.03-0.703c-0.015-0.146-0.124-0.308-0.128-0.413c-0.002-0.071 0.058-0.185 0.063-0.256     c0.022-0.334-0.019-0.777-0.063-1.146c-0.017-0.128-0.006-0.29-0.129-0.384c0.171-0.458 0-0.946-0.032-1.436     c-0.089-1.477-0.189-3.118-0.285-4.587c-0.162-2.51-0.398-5.271-0.605-7.71c-0.065-0.76-0.174-1.669-0.223-2.296     c0.001 0.019 0.058-0.166 0.065-0.128c-0.011-0.053-0.085-0.004-0.098-0.03c-0.013-0.03 0.062-0.037 0.064-0.033     c-0.037-0.079-0.105-0.173-0.129-0.29c-0.029-0.165 0.012-0.375-0.03-0.571c0.449-0.139 0.995-0.041 1.593-0.127     c0.104 0.255-0.134 0.601-0.063 0.894c0.08 0.346 0.525 0.433 0.892 0.35c-0.014-0.635 0.093-1.108 0.127-1.627     c0.014-0.195-0.045-0.447-0.063-0.698c-0.034-0.455 0.02-0.951-0.063-1.5c0.005-0.18 0.204 0.038 0.158-0.191     c-0.02-0.161-0.049 0.113-0.158 0.064c0.084-0.154-0.043-0.268 0.063-0.256c-0.192-1.544-0.108-4.11-0.191-6.087     c0.219-0.695-0.079-1.436 0.063-2.197c0.036-0.191 0.402-0.686 0.604-0.956c0.069-0.088 0.197-0.137 0.257-0.222     c0.061-0.086 0.069-0.223 0.126-0.319c0.178-0.293 0.445-0.59 0.672-0.894c0.225-0.301 0.43-0.618 0.638-0.923     c0.075-0.114 0.198-0.174 0.285-0.287c0.289-0.367 0.459-0.849 0.829-1.084c0.497-0.945 1.151-1.736 1.815-2.518     c0.065-0.297 0.343-0.439 0.415-0.637c0.009-0.043 0.079-0.026 0.128-0.03c0.119-0.466 0.428-0.742 0.731-1.022     c0.165-0.312 0.312-0.643 0.639-0.794c0.275-0.522 0.582-1.013 1.019-1.372c0.039-0.197 0.212-0.408 0.353-0.605     c0.132-0.193 0.28-0.408 0.477-0.509c0.307-0.688 0.89-1.18 1.339-1.754c0.248-0.319 0.453-0.667 0.7-0.988     c0.241-0.308 0.483-0.618 0.733-0.922c0.497-0.605 1.001-1.238 1.594-1.755c0-0.052 0-0.105 0-0.158     c0.284-0.261 0.578-0.669 0.86-1.02c0.185-0.233 0.527-0.521 0.541-0.733C90.322 32.656 89.983 32.393 90.437 32.262z      M70.36 37.71c-0.166-0.077-0.295-0.193-0.383-0.35c-0.104-0.043-0.352-0.251-0.254-0.286c0.246 0.209 0.684 0.228 0.796 0.571     C70.462 37.665 70.389 37.663 70.36 37.71z M11.884 17.698c0.066-0.201 0.006-0.524 0.159-0.637     c0.035 0.305 0.038 0.591 0.095 0.795C12.02 17.838 11.923 17.797 11.884 17.698z M12.298 11.611c-0.053 0-0.106 0-0.16 0     c0.028-0.131-0.071-0.392 0.098-0.382C12.34 11.323 12.332 11.446 12.298 11.611z M12.521 10.306     c-0.057-0.108-0.205-0.04-0.286 0C12.099 9.675 12.726 9.998 12.521 10.306z M21.507 22.956c-0.094-0.043-0.138 0.018-0.287 0     c-0.099-0.304-0.406-0.569-0.415-0.86C21.103 22.321 21.281 22.664 21.507 22.956z M20.903 28.086     c-0.146-0.045-0.198-0.353-0.191-0.446C20.777 27.787 20.889 27.888 20.903 28.086z M18.99 25.346     c0.057-0.288-0.335-0.493-0.255-0.798c-0.006 0.167 0.152 0.232 0.224 0.352c0.018 0.03-0.021 0.101 0 0.128     c0.146 0.198 0.432 0.31 0.574 0.509c0.097 0.135 0.143 0.349 0.224 0.512c0.263 0.531 0.701 0.971 0.859 1.497     c-0.496-0.649-0.867-1.428-1.433-2.008c-0.008 0.025-0.002 0.064-0.032 0.065c-0.026-0.091 0.044-0.083 0.032-0.161     C19.099 25.427 19.075 25.418 18.99 25.346z M16.089 23.72c0.107 0.095 0.137 0.345 0 0.447     C16.087 23.987 16.037 23.792 16.089 23.72z M13.957 24.262c0.021 0.164 0.039 0.371 0.063 0.607     C13.788 24.815 13.85 24.409 13.957 24.262z M15.803 34.873c-0.536-0.776-0.953-1.679-1.497-2.452     c0.038-0.251-0.29-0.635-0.192-0.575c0.502 0.693 0.969 1.492 1.403 2.23C15.648 34.298 15.982 34.567 15.803 34.873z      M15.964 22.638c0.104 0.123 0.114 0.24 0 0.35c0.043 0.003 0.069-0.015 0.095-0.032c-0.028 0.088 0.066 0.299-0.064 0.287     C15.978 23.007 15.873 22.881 15.964 22.638z M15.964 35.099c0.311 0.042 0.38 0.306 0.573 0.603     c0.289 0.451 0.743 0.84 0.701 1.244C16.755 36.389 16.362 35.739 15.964 35.099z M17.589 37.422     c0.161 0.137 0.343 0.254 0.381 0.511C17.811 37.941 17.603 37.56 17.589 37.422z M17.557 19.386     c0.006-0.024 0.026-0.038 0.064-0.031c0.006 0.045 0.069 0.037 0.096 0.065c0.551 0.858 1.053 1.77 1.656 2.581     c0.008 0.115 0.044 0.12 0 0.222c0.23-0.049 0.293 0.377 0.414 0.574c0.02 0.029 0.11 0.039 0.128 0.064     c0.233 0.303 0.43 0.705 0.572 0.956c-0.198 0.054-0.318 0.189-0.349 0.414c-0.616-0.596-0.784-1.636-1.403-2.229     c-0.008 0.154-0.051-0.031-0.03-0.097c-0.075-0.042-0.073 0.016-0.128-0.065c-0.027-0.382-0.058-0.605-0.319-0.828     C18.133 20.361 17.699 20.021 17.557 19.386z M21.316 42.649c0.062 0.214 0.34 0.212 0.383 0.445     C21.501 43.036 21.343 42.773 21.316 42.649z M20.933 37.393c-0.418-1.112-1.024-2.035-1.593-2.997     c-0.139-0.521-0.678-1.082-0.794-1.623c1.229 1.847 2.415 3.744 3.503 5.735C21.459 38.368 21.312 37.644 20.933 37.393z      M21.858 20.311c0.074 0.021 0.192 0.064 0.255 0c0.245 0.499 0.683 0.974 0.828 1.466C22.585 21.284 22.199 20.82 21.858 20.311     z M23.197 22.064c0.106 0.287 0.398 0.556 0.415 0.828c-0.123-0.002-0.301 0.015-0.415 0.128     c-0.102-0.219-0.315-0.322-0.351-0.606C23.065 22.4 23.08 22.18 23.197 22.064z M22.909 44.817     c0.196 0.066 0.372 0.224 0.574 0.352c0.175 0.107 0.519 0.167 0.477 0.413C23.623 45.463 22.961 45.221 22.909 44.817z      M24.088 36.276c-0.03-0.065-0.064-0.125-0.096-0.191C24.092 36.062 24.143 36.25 24.088 36.276z M24.249 32.421     c-0.036-0.032-0.121-0.175-0.033-0.224C24.202 32.279 24.33 32.38 24.249 32.421z M27.595 38.347     c-0.248-0.24-0.452-0.526-0.733-0.732c-0.498-1.032-1.067-1.993-1.529-3.059c-0.099 0.022-0.062-0.088-0.162-0.064     c-0.104-0.583-0.552-1.321-0.764-1.944c0.443 0.597 0.753 1.351 1.147 1.913c0.075 0.381 0.285 0.631 0.479 0.892     c0.52 0.776 0.852 1.74 1.401 2.486C27.42 38.054 27.662 38.184 27.595 38.347z M33.076 54.091     c0.118 0.124 0.255 0.232 0.382 0.349c-0.145 0.023-0.247 0.038-0.447 0.064C33.015 54.35 32.987 54.162 33.076 54.091z      M32.979 55.875c0.306 0.008 0.4 0.008 0.607 0.03c-0.084 0.15-0.336 0.405-0.352 0.732c0.04 0.102 0.218 0.191 0.16 0.286     c-0.167-0.02-0.241 0.056-0.415 0.033C32.979 56.597 32.979 56.236 32.979 55.875z M33.618 64.382     c-0.241 0.075-0.424 0.037-0.734 0.063c-0.016-0.102 0.059-0.108 0.033-0.222C33.12 64.325 33.739 63.965 33.618 64.382z      M33.458 60.016c-0.19 0.012-0.294 0.03-0.382 0.191c-0.006-0.815-0.075-1.239-0.065-2.168c0.146 0.016 0.352-0.029 0.447 0.034     c-0.032 0.274-0.292 0.387-0.191 0.699c0.134 0.131 0.303 0.229 0.446 0.353C33.522 59.32 33.221 59.682 33.458 60.016z      M33.618 53.357c-0.259-0.045-0.393 0.136-0.542 0.35c0.003-0.466 0.049-1.025 0.096-1.498c0.196-0.006 0.43-0.083 0.541 0.032     C33.159 52.325 33.197 53.264 33.618 53.357z M34.605 50.904c0.024-0.007 0.038-0.028 0.033-0.064c0.043 0 0.084 0 0.126 0     C34.801 50.936 34.629 50.975 34.605 50.904z M34.795 50.904c-0.029-0.098 0.21-0.084 0.192-0.064     C34.932 50.868 34.906 50.928 34.795 50.904z M35.625 66.294c0-0.202 0-0.405 0-0.604c0.033 0 0.064 0 0.095 0     C35.7 65.903 35.697 66.133 35.625 66.294z M36.676 50.904c-0.108-0.19-0.354 0.011-0.509-0.128     c0.327-0.022 0.52-0.084 0.923-0.034C36.931 50.776 36.811 50.848 36.676 50.904z M39.098 53.294     c0.067-0.061 0.208-0.022 0.256 0.03C39.277 53.305 39.122 53.365 39.098 53.294z M40.979 63.875     c0.312-0.14 0.773-0.162 1.083-0.099C41.697 63.852 41.382 63.811 40.979 63.875z M42.126 63.776     c0.004-0.135 0.245-0.029 0.352-0.063C42.472 63.849 42.232 63.743 42.126 63.776z M43.433 73.084     c0.034-0.252-0.056-0.496 0.064-0.609C43.472 72.674 43.556 72.982 43.433 73.084z M43.433 72.445c0-0.087 0-0.169 0-0.256     C43.533 72.155 43.533 72.479 43.433 72.445z M43.781 66.486c-0.115-0.602-0.121-1.24-0.222-1.913     c0.101-0.004 0.288-0.053 0.415 0C43.917 65.265 43.839 65.862 43.781 66.486z M44.357 73.271     c-0.025-0.522 0.036-0.936 0.063-1.562c0.061-1.395 0.029-2.743 0.255-4.141C44.61 69.356 44.547 71.408 44.357 73.271z      M44.707 66.294c-0.022-0.146 0.028-0.477 0.097-0.639C44.83 65.81 44.791 66.151 44.707 66.294z M51.049 62.184     c0.562-0.011 1.018-0.124 1.562 0.03C52.137 62.229 51.424 62.372 51.049 62.184z M52.706 62.214     c0.045-0.136 0.344-0.015 0.414-0.128c0.042 0.057 0.127 0.067 0.16 0.128c0.061-0.071 0.19-0.071 0.254 0     C53.212 62.304 53.075 62.169 52.706 62.214z M55.224 60.654c0.052-0.041 0.28-0.071 0.287 0.03     C55.368 60.67 55.287 60.688 55.224 60.654z M56.816 61.421c0.13 0.034 0.176-0.015 0.35 0     C57.135 61.557 56.877 61.53 56.816 61.421z M57.422 61.451c0.039-0.004 0.075-0.012 0.063-0.064     c0.084 0.144 0.31-0.12 0.415 0.064C57.76 61.586 57.605 61.496 57.422 61.451z M56.148 49.692     c-0.053 0.022 0.006 0.158-0.096 0.128c-0.08-0.143-0.462-0.09-0.607 0.064c-0.629-0.143-1.566 0.238-2.39 0.189     c0.136-0.131 0.404-0.22 0.319-0.477c1.266 0.038 3.048-0.165 4.525-0.064C57.258 49.549 56.853 49.889 56.148 49.692z      M59.877 51.508c0.14-0.11 0.19 0.152 0.35 0.032C60.195 51.678 59.895 51.589 59.877 51.508z M60.927 51.572     c-0.095 0.002-0.208 0.017-0.19-0.096c0.076-0.014 0.069 0.058 0.16 0.031c-0.011-0.052 0.041-0.086 0.063-0.031     C60.922 51.481 60.925 51.525 60.927 51.572z M61.471 51.636c-0.243-0.024-0.303-0.075-0.479-0.191     c0.057 0.019 0.187-0.039 0.19 0.032c-0.024 0.007-0.062 0.002-0.062 0.031c0.106 0.081 0.3-0.071 0.413 0.032     C61.492 51.554 61.469 51.581 61.471 51.636z M67.108 48.544c0.061-0.005 0.213-0.081 0.256 0     C67.265 48.601 67.178 48.687 67.108 48.544z M71.793 38.826c-0.189-0.056-0.5-0.265-0.668-0.447     C71.526 38.253 71.604 38.644 71.793 38.826z M71.38 46.666c0.29-0.145 0.869-0.186 1.083 0     C72.113 46.611 71.698 46.778 71.38 46.666z M72.431 41.375c-0.089-0.112-0.188-0.216-0.221-0.383     c0.424-0.096 0.863-0.438 1.082 0C72.962 41.077 72.764 41.292 72.431 41.375z M73.739 52.812     c-0.166-0.003-0.369 0.03-0.447-0.063c0.125-0.015 0.426-0.109 0.478 0C73.744 52.757 73.733 52.779 73.739 52.812z      M74.693 44.562c0.135-0.207 0.509-0.34 0.732-0.35C75.139 44.347 74.973 44.462 74.693 44.562z M76.224 49.181     c-0.017-0.045-0.048-0.079-0.065-0.126c0.102 0.015 0.115-0.058 0.226-0.032C76.368 49.115 76.315 49.168 76.224 49.181z      M76.888 39.243c-0.809 0.391-1.596 0.799-2.45 1.145c0.005-0.134 0.125-0.152 0.127-0.286c0.464-0.177 0.971-0.308 1.372-0.543     C76.267 39.519 76.707 39.258 76.888 39.243c0.002 0 0.004-0.001 0.006-0.003c0.01 0.003 0.021 0 0.03 0     C76.915 39.239 76.899 39.243 76.888 39.243z M77.437 47.843c-0.074 0.085-0.108 0.267-0.258 0.224     c0.438-0.689 0.988-1.264 1.37-2.01c0.904-0.994 1.611-2.361 2.486-3.28C79.814 44.375 78.739 46.352 77.437 47.843z" stroke="none" fill="#d42304" transform="matrix(2.2599031925201416, 0, 0, 2.2599031925201416, 139.5465545654297, 61.67532730102539)" stroke-width="1" data-uid="o_f6j82l99k_7"/></g></svg>